<svg xmlns="http://www.w3.org/2000/svg" xmlns:xlink="http://www.w3.org/1999/xlink" preserveAspectRatio="xMidYMid" width="24.031" height="14" viewBox="0 0 24.031 14">
  <defs>
    <style>
      .cls-1 {
        fill: #c2c2c2;
        fill-rule: evenodd;
      }
    </style>
  </defs>
  <path d="M23.836,6.470 C23.659,6.206 19.412,-0.000 11.998,-0.000 C4.584,-0.000 0.337,6.206 0.160,6.470 C-0.055,6.791 -0.055,7.210 0.160,7.530 C0.337,7.794 4.584,14.000 11.998,14.000 C19.412,14.000 23.659,7.794 23.836,7.530 C24.051,7.210 24.051,6.790 23.836,6.470 ZM11.998,12.103 C6.791,12.103 3.275,8.400 2.132,6.998 C3.272,5.595 6.771,1.897 11.998,1.897 C17.205,1.897 20.721,5.600 21.864,7.002 C20.725,8.405 17.225,12.103 11.998,12.103 ZM11.995,2.566 C11.033,2.566 10.116,2.874 9.344,3.457 C7.399,4.926 7.006,7.711 8.469,9.664 C9.311,10.789 10.599,11.433 12.001,11.433 C12.964,11.433 13.880,11.126 14.652,10.543 C15.594,9.832 16.204,8.794 16.369,7.622 C16.534,6.449 16.235,5.282 15.526,4.335 C14.685,3.211 13.398,2.566 11.995,2.566 ZM14.966,7.422 C14.854,8.218 14.440,8.922 13.800,9.405 C13.276,9.801 12.654,10.010 12.001,10.010 C11.049,10.010 10.175,9.572 9.603,8.809 C8.609,7.482 8.876,5.592 10.196,4.594 C10.720,4.199 11.343,3.989 11.996,3.989 C12.949,3.989 13.823,4.427 14.394,5.190 C14.875,5.833 15.079,6.626 14.966,7.422 ZM13.005,5.042 C12.757,5.042 12.514,5.144 12.337,5.320 C12.163,5.498 12.061,5.742 12.061,5.991 C12.061,6.240 12.163,6.487 12.337,6.662 C12.512,6.838 12.757,6.939 13.005,6.939 C13.254,6.939 13.497,6.838 13.674,6.662 C13.849,6.487 13.950,6.240 13.950,5.991 C13.950,5.742 13.849,5.498 13.674,5.320 C13.497,5.144 13.254,5.042 13.005,5.042 Z" class="cls-1"/>
</svg>
