<svg xmlns="http://www.w3.org/2000/svg" xmlns:xlink="http://www.w3.org/1999/xlink" preserveAspectRatio="xMidYMid" width="28" height="28" viewBox="0 0 28 28">
  <defs>
    <style>
      .cls-1 {
        fill: #23c46e;
        fill-rule: evenodd;
      }
    </style>
  </defs>
  <path d="M27.375,17.046 L17.028,17.046 L17.028,27.394 C17.028,27.729 16.755,28.002 16.419,28.002 L11.549,28.002 C11.213,28.002 10.941,27.729 10.941,27.394 L10.941,17.046 L0.593,17.046 C0.257,17.046 -0.016,16.774 -0.016,16.437 L-0.016,11.568 C-0.016,11.231 0.257,10.958 0.593,10.958 L10.941,10.958 L10.941,0.611 C10.941,0.275 11.213,0.002 11.549,0.002 L16.419,0.002 C16.755,0.002 17.028,0.275 17.028,0.611 L17.028,10.958 L27.375,10.958 C27.712,10.958 27.984,11.231 27.984,11.568 L27.984,16.437 C27.984,16.774 27.712,17.046 27.375,17.046 Z" class="cls-1"/>
</svg>
