<svg xmlns="http://www.w3.org/2000/svg" xmlns:xlink="http://www.w3.org/1999/xlink" preserveAspectRatio="xMidYMid" width="199.746" height="200" viewBox="0 0 199.746 200">
  <defs>
    <style>
      .cls-1 {
        fill: #000;
        opacity: 0.08;
        fill-rule: evenodd;
      }
    </style>
  </defs>
  <path d="M199.319,57.975 C198.251,56.778 172.850,28.662 144.500,27.679 C129.526,27.168 119.393,30.176 113.262,33.041 C111.587,28.729 105.188,16.353 84.222,5.739 C76.689,1.929 67.448,-0.004 56.743,-0.004 C38.377,-0.004 22.234,5.602 21.553,5.839 C20.920,6.063 20.481,6.648 20.450,7.316 C20.414,7.985 20.793,8.609 21.398,8.891 C22.399,9.362 46.015,20.367 56.598,20.367 C57.226,20.367 57.810,20.327 58.340,20.254 C61.608,19.785 64.700,19.133 67.357,18.471 L63.737,21.276 C63.284,21.627 63.049,22.188 63.104,22.750 C63.164,23.318 63.513,23.816 64.029,24.067 L72.180,28.037 C69.615,27.806 66.980,27.669 64.290,27.623 L63.513,27.616 C31.658,27.616 1.742,57.548 0.485,58.823 C0.011,59.299 -0.126,60.014 0.136,60.633 C0.404,61.247 0.948,61.688 1.686,61.632 C3.080,61.611 35.899,61.060 44.982,54.911 C48.442,52.567 51.573,50.088 54.118,47.926 L51.342,53.556 C51.088,54.066 51.120,54.669 51.423,55.157 C51.728,55.642 52.258,55.937 52.831,55.937 L69.732,55.937 C70.308,55.937 70.842,55.639 71.140,55.148 L73.256,51.726 L73.048,53.611 C72.961,54.428 73.487,55.188 74.285,55.391 C74.517,55.451 79.988,56.823 87.448,56.823 C87.501,56.823 87.552,56.823 87.609,56.819 C76.145,63.179 66.078,72.356 57.266,82.950 C57.252,82.958 57.206,82.980 57.199,82.983 L57.213,83.010 C44.019,98.891 33.660,117.995 25.857,135.905 C25.815,135.935 25.761,135.973 25.755,135.980 L25.801,136.038 C12.822,165.850 6.848,192.228 6.349,194.475 C6.191,195.193 6.536,195.939 7.189,196.288 C11.827,198.750 16.974,200.009 22.491,200.009 C31.809,200.009 38.893,196.452 39.195,196.302 C39.735,196.024 40.084,195.474 40.097,194.865 C41.623,121.197 93.941,62.955 100.408,56.043 C105.644,69.358 117.022,77.936 117.530,78.311 C118.189,78.802 119.115,78.735 119.699,78.150 L121.037,76.808 L119.699,80.597 C119.500,81.138 119.609,81.740 119.966,82.188 L130.583,95.276 C130.943,95.721 131.499,95.945 132.075,95.880 C132.642,95.806 133.136,95.452 133.376,94.930 L136.031,89.239 C135.939,92.569 135.970,96.555 136.320,100.716 C137.226,111.613 157.426,137.416 158.284,138.504 C158.699,139.024 159.385,139.257 160.040,139.075 C160.689,138.887 161.156,138.333 161.238,137.673 C161.444,135.870 166.066,93.200 145.481,68.602 C140.087,62.162 134.422,56.833 128.568,52.697 C132.103,52.508 134.398,52.049 134.522,52.024 C135.328,51.860 135.898,51.127 135.846,50.312 L135.798,49.527 L137.078,51.853 C137.353,52.357 137.871,52.684 138.447,52.711 L153.284,53.460 C153.319,53.460 153.346,53.460 153.374,53.460 C153.387,53.464 153.394,53.464 153.401,53.460 C154.324,53.460 155.065,52.722 155.065,51.808 C155.065,51.461 154.959,51.141 154.777,50.876 L153.092,46.949 C155.096,48.809 157.498,50.876 160.126,52.861 C167.881,58.700 196.752,60.645 197.970,60.721 C198.660,60.735 199.274,60.398 199.569,59.796 C199.864,59.198 199.765,58.480 199.319,57.975 ZM43.675,108.610 C48.372,100.639 53.601,92.926 59.366,85.854 C60.395,85.456 62.802,84.738 65.041,85.704 C67.069,86.579 68.579,88.712 69.581,91.956 C65.578,98.500 61.538,105.744 57.722,113.577 C53.776,109.168 48.116,108.254 43.675,108.610 ZM41.441,112.496 C44.211,111.880 51.822,110.905 56.039,117.127 C53.186,123.232 50.494,129.680 48.070,136.418 C41.401,131.513 35.062,132.067 30.857,133.462 C34.008,126.512 37.526,119.443 41.441,112.496 ZM18.060,166.045 C21.007,164.697 31.766,160.470 39.933,165.874 C39.092,170.221 38.404,174.644 37.884,179.135 C27.877,175.605 18.683,177.428 13.983,178.885 C15.112,175.088 16.471,170.758 18.060,166.045 ZM19.571,161.653 C22.110,154.415 25.178,146.429 28.759,138.182 C31.208,136.692 38.682,133.244 46.837,139.906 C44.412,147.034 42.314,154.484 40.667,162.190 C33.137,157.970 24.490,159.902 19.571,161.653 ZM22.502,196.691 C17.983,196.691 13.745,195.758 9.891,193.934 C10.334,192.087 11.297,188.243 12.782,183.013 C15.330,182.004 26.039,178.361 37.505,182.746 C37.164,186.375 36.918,190.039 36.815,193.750 C34.736,194.632 29.194,196.691 22.502,196.691 ZM71.911,88.215 C70.586,85.430 68.762,83.494 66.436,82.492 C65.206,81.964 63.983,81.764 62.838,81.740 C72.293,71.002 83.116,62.083 95.407,56.641 C90.713,61.958 81.590,72.963 71.911,88.215 ZM162.123,50.225 C154.907,44.788 149.393,38.524 149.338,38.464 C148.803,37.850 147.897,37.713 147.204,38.147 C146.518,38.582 146.243,39.454 146.566,40.199 L150.800,50.024 L139.549,49.456 L135.184,41.513 C134.810,40.837 134.021,40.505 133.273,40.720 C132.528,40.931 132.031,41.632 132.075,42.397 L132.449,49.009 C130.620,49.262 127.193,49.607 123.082,49.412 C122.306,49.359 121.634,49.864 121.407,50.592 C121.188,51.318 121.497,52.103 122.155,52.487 C129.351,56.718 136.344,62.847 142.928,70.717 C158.918,89.822 158.867,121.580 158.253,133.025 C151.572,124.094 140.218,107.601 139.621,100.435 C138.763,90.202 139.916,80.772 139.923,80.678 C140.022,79.872 139.518,79.109 138.736,78.885 C138.584,78.839 138.427,78.819 138.283,78.819 C137.648,78.819 137.054,79.183 136.773,79.775 L131.485,91.122 L123.123,80.811 L126.602,70.986 C126.860,70.254 126.582,69.445 125.927,69.033 C125.271,68.626 124.413,68.720 123.871,69.264 L118.388,74.742 C115.265,72.118 106.413,63.944 102.755,52.795 C102.480,51.952 101.588,51.468 100.717,51.723 C99.708,52.013 98.596,52.277 97.241,52.550 C97.018,52.598 96.812,52.691 96.634,52.809 C96.428,52.764 96.222,52.761 96.011,52.798 C93.295,53.261 90.409,53.496 87.438,53.496 C82.553,53.496 78.520,52.858 76.495,52.467 L77.325,44.784 C77.410,44.015 76.950,43.290 76.215,43.040 C75.481,42.796 74.676,43.083 74.265,43.741 L68.790,52.609 L55.490,52.609 L61.025,41.374 C61.387,40.646 61.159,39.762 60.491,39.296 C59.828,38.828 58.913,38.918 58.343,39.500 C58.278,39.570 51.644,46.388 43.122,52.157 C37.153,56.196 17.144,57.761 5.976,58.189 C14.442,50.596 38.783,30.904 63.509,30.904 L64.230,30.912 C70.892,31.018 77.175,31.724 82.905,33.020 C83.663,33.191 84.444,32.806 84.770,32.100 C85.073,31.452 84.921,30.698 84.413,30.212 L87.957,24.601 C88.369,23.949 88.273,23.094 87.726,22.549 C87.173,22.005 86.321,21.911 85.667,22.322 L77.993,27.168 L67.870,22.239 L76.341,15.679 C76.987,15.180 77.171,14.288 76.773,13.572 C76.380,12.861 75.519,12.537 74.757,12.818 C74.680,12.850 66.812,15.676 57.863,16.958 C57.472,17.018 57.048,17.035 56.590,17.035 C49.202,17.035 34.015,10.819 26.791,7.663 C32.729,5.996 44.321,3.273 56.731,3.273 C66.913,3.273 75.653,5.088 82.711,8.660 C106.557,20.731 110.516,35.226 110.551,35.366 C110.575,35.456 110.647,35.661 110.688,35.750 L110.777,35.965 C110.956,36.389 111.302,36.723 111.738,36.880 C112.170,37.037 112.654,37.003 113.069,36.789 C118.594,33.896 128.661,30.404 144.366,30.951 C165.857,31.700 186.314,49.688 193.801,57.046 C183.967,56.171 167.057,53.941 162.123,50.225 Z" class="cls-1"/>
</svg>
